<svg xmlns="http://www.w3.org/2000/svg" width="14.66" height="14.46" viewBox="0 0 14.66 14.46">
  <defs>
    <style>
      .cls-1 {
        fill: #606060;
        fill-rule: evenodd;
      }
    </style>
  </defs>
  <path id="Instagram_Logo_Silhouette._Attribute_as_Freepik_from_Flaticon.com" data-name="Instagram Logo Silhouette. Attribute as Freepik from Flaticon.com" class="cls-1" d="M1202.79,1436.61a0.915,0.915,0,0,1-.92.91h-0.88a0.924,0.924,0,0,1-.93-0.91v-0.87a0.918,0.918,0,0,1,.93-0.91h0.88a0.909,0.909,0,0,1,.92.91v0.87h0Zm0,8.41a0.971,0.971,0,0,1-.98.92h-9.24a1.008,1.008,0,0,1-1.02-.92v-4.56a1.008,1.008,0,0,1,1.02-.92h0.52a0.308,0.308,0,0,1,.1.01,0.392,0.392,0,0,1,.34.35,0.375,0.375,0,0,1-.01.1c0,0.02.05,0.04,0.05,0.06a2.748,2.748,0,0,0,.02.4h0a3.636,3.636,0,0,0,3.58,3.65h0.02a3.673,3.673,0,0,0,3.69-3.65c0-.14-0.01-0.27-0.02-0.4a0.127,0.127,0,0,1-.01-0.06v-0.1a0.374,0.374,0,0,1,.33-0.35,0.34,0.34,0,0,1,.1-0.01h0.53a0.971,0.971,0,0,1,.98.92v4.56h0Zm-7.45-4.56a1.845,1.845,0,0,1,3.69,0A1.845,1.845,0,0,1,1195.34,1440.46Zm7.31-7.32h-10.96a1.842,1.842,0,0,0-1.85,1.83v10.82a1.842,1.842,0,0,0,1.85,1.83h10.96a1.833,1.833,0,0,0,1.84-1.83v-10.82a1.833,1.833,0,0,0-1.84-1.83" transform="translate(-1189.84 -1433.16)"/>
</svg>
