<svg xmlns="http://www.w3.org/2000/svg" width="14.65" height="12.18" viewBox="0 0 14.65 12.18">
  <defs>
    <style>
      .cls-1 {
        fill: #606060;
        fill-rule: evenodd;
      }
    </style>
  </defs>
  <path id="Social_Twitter_Bird_Symbol._Attribute_as_Elegant_Themes_from_Flaticon.com" data-name="Social Twitter Bird Symbol. Attribute as Elegant Themes from Flaticon.com" class="cls-1" d="M1110.67,1434.89a6.037,6.037,0,0,1-1.9.75,2.968,2.968,0,0,0-2.2-.97,3.037,3.037,0,0,0-3,3.07,3.289,3.289,0,0,0,.07.71,8.485,8.485,0,0,1-6.19-3.22,3.122,3.122,0,0,0,.93,4.11,3.022,3.022,0,0,1-1.36-.39v0.04a3.067,3.067,0,0,0,2.41,3.02,2.955,2.955,0,0,1-.79.11,2.69,2.69,0,0,1-.57-0.06,3.047,3.047,0,0,0,2.81,2.14,5.967,5.967,0,0,1-3.73,1.32,5.807,5.807,0,0,1-.72-0.05,8.317,8.317,0,0,0,4.61,1.39,8.609,8.609,0,0,0,8.55-8.76l-0.01-.4a5.98,5.98,0,0,0,1.5-1.59,5.92,5.92,0,0,1-1.73.48A3.042,3.042,0,0,0,1110.67,1434.89Z" transform="translate(-1096.44 -1434.66)"/>
</svg>
